<svg width="101" height="100" viewBox="0 0 101 100" fill="none" xmlns="http://www.w3.org/2000/svg">
<path d="M50.8211 24.3613C36.6295 24.3613 25.1824 35.8083 25.1824 50C25.1824 64.1917 36.6295 75.6387 50.8211 75.6387C65.0128 75.6387 76.4599 64.1917 76.4599 50C76.4599 35.8083 65.0128 24.3613 50.8211 24.3613ZM50.8211 66.6685C41.6501 66.6685 34.1526 59.1934 34.1526 50C34.1526 40.8067 41.6278 33.3315 50.8211 33.3315C60.0145 33.3315 67.4897 40.8067 67.4897 50C67.4897 59.1934 59.9922 66.6685 50.8211 66.6685ZM83.4888 23.3125C83.4888 26.6373 80.8111 29.2927 77.5086 29.2927C74.1839 29.2927 71.5285 26.615 71.5285 23.3125C71.5285 20.01 74.2062 17.3324 77.5086 17.3324C80.8111 17.3324 83.4888 20.01 83.4888 23.3125ZM100.47 29.3819C100.09 21.3712 98.2606 14.2754 92.3921 8.4291C86.5458 2.58284 79.45 0.753096 71.4392 0.351445C63.1831 -0.117148 38.4369 -0.117148 30.1807 0.351445C22.1923 0.730782 15.0965 2.56053 9.22793 8.40678C3.35936 14.253 1.55192 21.3489 1.15027 29.3596C0.68168 37.6158 0.68168 62.3619 1.15027 70.6181C1.52961 78.6288 3.35936 85.7246 9.22793 91.5709C15.0965 97.4172 22.17 99.2469 30.1807 99.6486C38.4369 100.117 63.1831 100.117 71.4392 99.6486C79.45 99.2692 86.5458 97.4395 92.3921 91.5709C98.2383 85.7246 100.068 78.6288 100.47 70.6181C100.938 62.3619 100.938 37.6381 100.47 29.3819ZM89.8036 79.4767C88.0631 83.8503 84.6937 87.2197 80.2979 88.9825C73.7153 91.5932 58.0955 90.9907 50.8211 90.9907C43.5468 90.9907 27.9047 91.5709 21.3444 88.9825C16.9709 87.242 13.6015 83.8726 11.8387 79.4767C9.22793 72.8941 9.8304 57.2744 9.8304 50C9.8304 42.7257 9.25024 27.0836 11.8387 20.5233C13.5791 16.1497 16.9486 12.7803 21.3444 11.0175C27.927 8.40678 43.5468 9.00926 50.8211 9.00926C58.0955 9.00926 73.7376 8.4291 80.2979 11.0175C84.6714 12.758 88.0408 16.1274 89.8036 20.5233C92.4144 27.1059 91.8119 42.7257 91.8119 50C91.8119 57.2744 92.4144 72.9164 89.8036 79.4767Z" fill="white"/>
</svg>
