<!DOCTYPE svg PUBLIC "-//W3C//DTD SVG 1.1//EN" "http://www.w3.org/Graphics/SVG/1.1/DTD/svg11.dtd">
<!-- Uploaded to: SVG Repo, www.svgrepo.com, Transformed by: SVG Repo Mixer Tools -->
<svg width="135px" height="135px" viewBox="-2.4 -2.4 28.80 28.80" fill="none" xmlns="http://www.w3.org/2000/svg" stroke="#000000" stroke-width="0.9359999999999999" transform="rotate(0)">
<g id="SVGRepo_bgCarrier" stroke-width="0"/>
<g id="SVGRepo_tracerCarrier" stroke-linecap="round" stroke-linejoin="round"/>
<g id="SVGRepo_iconCarrier"> <path d="M7.09858 18.9687H7.09467C2.40327 17.6484 2.46967 12.7812 2.52436 10.1836C2.57905 7.58593 3.08296 5.48827 4.51264 4.05859C7.08296 1.69921 12.3603 2.01562 12.3603 2.01562C16.8369 2.03515 18.8447 3.49218 19.3408 3.94921C20.9892 5.3828 21.9033 8.55468 21.2861 13.5781C20.6923 18.4453 17.0244 18.9141 16.3759 19.125C16.0947 19.2148 13.6298 19.832 10.4189 19.5625M7.65717 17.6601C7.65717 17.6601 7.64155 20.7383 7.64155 21.0078C7.63764 21.418 7.86421 21.4375 8.07124 21.2305C8.70405 20.5937 10.7353 18.1445 10.7353 18.1445C13.458 18.3203 15.6259 17.7812 15.8603 17.707C16.4072 17.5312 19.3798 17.2734 19.8837 13.2109C20.4033 9.01952 19.6923 6.16015 18.2978 4.96484C17.8759 4.58202 16.0634 3.4414 12.2783 3.42577C12.2783 3.42577 7.7978 3.1328 5.62202 5.10546C4.41108 6.30077 4.00092 8.07812 3.95796 10.2461C3.91499 12.4141 3.68061 16.5586 7.65717 17.6601ZM7.65717 17.6601C7.65327 17.6601 7.65327 17.6601 7.65717 17.6601ZM14.4541 10.0547C14.3994 8.93359 13.7939 8.30859 12.7041 8.24999M12.3212 6.89452C14.5869 7.05859 15.7939 8.61718 15.7509 10.5078M17.083 11.0195C17.0556 7.58984 14.7392 5.60155 11.8603 5.58202M16.6416 14.8516V14.8594C16.2197 15.6016 15.4306 16.4219 14.6181 16.1601L14.6103 16.1484C13.7861 15.918 11.8447 14.918 10.6181 13.9414C9.9853 13.4414 9.40717 12.8516 8.96186 12.2851C8.55952 11.7812 8.15327 11.1836 7.75874 10.4648C6.92671 8.96093 6.74311 8.28905 6.74311 8.28905C6.48139 7.47655 7.2978 6.68749 8.04389 6.26562H8.05171C8.41108 6.07812 8.75483 6.14062 8.9853 6.41796C8.9853 6.41796 9.46967 6.99609 9.67671 7.28124C9.87202 7.54687 10.1337 7.97265 10.2705 8.21093C10.5087 8.63671 10.3603 9.0703 10.1259 9.24999L9.65717 9.62499C9.41889 9.8164 9.45014 10.1719 9.45014 10.1719C9.45014 10.1719 10.1455 12.8008 12.7431 13.4648C12.7431 13.4648 13.0986 13.4961 13.29 13.2578L13.665 12.7891C13.8447 12.5547 14.2783 12.4062 14.704 12.6445C15.2783 12.9687 16.0087 13.4726 16.4931 13.9297C16.7666 14.1523 16.8291 14.4922 16.6416 14.8516Z" stroke="#008c99" stroke-linecap="round" stroke-linejoin="round"/> </g>
</svg>