<svg width="161" height="161" viewBox="0 0 161 161" fill="none" xmlns="http://www.w3.org/2000/svg">
<g clip-path="url(#clip0_183_586)">
<path d="M139.617 15.6911C135.624 12.012 119.461 0.282869 83.4244 0.125642C83.4244 0.125642 40.9417 -2.42143 20.2507 16.5715C8.74174 28.0805 4.6853 44.9667 4.24506 65.8778C3.80483 86.7889 3.27026 125.97 41.0361 136.598H41.0675L41.0361 152.824C41.0361 152.824 40.7845 159.396 45.124 160.717C50.3439 162.352 53.4255 157.352 58.4253 151.975C61.1611 149.019 64.9345 144.68 67.796 141.378C93.6441 143.548 113.486 138.579 115.75 137.856C120.97 136.158 150.497 132.385 155.277 93.2038C160.245 52.7651 152.887 27.2315 139.617 15.6911ZM143.988 90.2479C139.932 122.951 116.002 125.026 111.599 126.441C109.713 127.039 92.2605 131.378 70.3431 129.963C70.3431 129.963 53.9915 149.68 48.8974 154.805C47.2308 156.472 45.407 156.315 45.4384 153.013C45.4384 150.843 45.5642 126.064 45.5642 126.064C45.5328 126.064 45.5328 126.064 45.5642 126.064C13.5529 117.197 15.4396 83.8331 15.7855 66.3809C16.1314 48.9288 19.4331 34.6211 29.1812 24.9989C46.6962 9.119 82.764 11.4774 82.764 11.4774C113.235 11.6032 127.825 20.7852 131.221 23.8669C142.447 33.4891 148.17 56.5071 143.988 90.2479ZM100.279 64.8401C100.405 67.5444 96.3484 67.7331 96.2226 65.0288C95.8767 58.1108 92.6378 54.7461 85.9714 54.3688C83.2671 54.2116 83.5187 50.1551 86.1916 50.3124C94.9648 50.784 99.8388 55.8153 100.279 64.8401ZM106.662 68.3934C106.977 55.0606 98.6439 44.6208 82.8269 43.4573C80.154 43.2686 80.437 39.2122 83.1099 39.4008C101.348 40.7215 111.065 53.2682 110.719 68.4878C110.687 71.1921 106.6 71.0663 106.662 68.3934ZM121.442 72.6071C121.473 75.3114 117.385 75.3428 117.385 72.6385C117.197 47.0106 100.122 33.0489 79.3994 32.8917C76.7265 32.8602 76.7265 28.8352 79.3994 28.8352C102.575 28.9924 121.222 44.9981 121.442 72.6071ZM117.888 103.455V103.518C114.492 109.492 108.14 116.096 101.6 113.989L101.537 113.895C94.9019 112.04 79.2736 103.99 69.3997 96.1282C64.3056 92.1032 59.6517 87.3549 56.0669 82.7954C52.8281 78.7389 49.5578 73.9278 46.3818 68.1419C39.6839 56.0354 38.206 50.6268 38.206 50.6268C36.0992 44.0862 42.6712 37.7342 48.6773 34.3381H48.7402C51.6331 32.8288 54.4003 33.3319 56.2556 35.5645C56.2556 35.5645 60.1548 40.2184 61.8214 42.5139C63.3937 44.6522 65.5005 48.0797 66.6011 49.9979C68.5193 53.4254 67.3244 56.9159 65.4376 58.3624L61.6642 61.3811C59.746 62.9219 59.9976 65.7835 59.9976 65.7835C59.9976 65.7835 65.5949 86.9461 86.506 92.2918C86.506 92.2918 89.3675 92.5434 90.9083 90.6253L93.9271 86.8518C95.3736 84.9651 98.864 83.7702 102.292 85.6883C106.914 88.2983 112.794 92.3547 116.694 96.0338C118.895 97.8262 119.398 100.562 117.888 103.455Z" fill="white"/>
</g>
<defs>
<clipPath id="clip0_183_586">
<rect width="161" height="161" fill="white"/>
</clipPath>
</defs>
</svg>
